<?xml version="1.0" encoding="UTF-8" standalone="no"?><!DOCTYPE svg PUBLIC "-//W3C//DTD SVG 1.1//EN" "http://www.w3.org/Graphics/SVG/1.1/DTD/svg11.dtd"><svg width="100%" height="100%" viewBox="0 0 834 200" version="1.1" xmlns="http://www.w3.org/2000/svg" xmlns:xlink="http://www.w3.org/1999/xlink" xml:space="preserve" xmlns:serif="http://www.serif.com/" style="fill-rule:evenodd;clip-rule:evenodd;stroke-linejoin:round;stroke-miterlimit:2;"><path d="M200,41.667l0,116.667c0,22.996 -18.67,41.667 -41.667,41.667l-116.667,0c-22.996,0 -41.667,-18.67 -41.667,-41.667l0,-116.667c0,-22.996 18.67,-41.667 41.667,-41.667l116.667,0c22.996,0 41.667,18.67 41.667,41.667Z" style="fill:url(#_Radial1);"/><clipPath id="_clip2"><path d="M200,41.667l0,116.667c0,22.996 -18.67,41.667 -41.667,41.667l-116.667,0c-22.996,0 -41.667,-18.67 -41.667,-41.667l0,-116.667c0,-22.996 18.67,-41.667 41.667,-41.667l116.667,0c22.996,0 41.667,18.67 41.667,41.667Z"/></clipPath><g clip-path="url(#_clip2)"><text x="22.873px" y="168.97px" style="font-family:'TimesNewRomanPS-BoldMT', 'Times New Roman', serif;font-weight:700;font-size:208.333px;fill:#fff;">E</text></g><text x="504.559px" y="99.042px" style="font-family:'BebasNeue-Regular', 'Bebas Neue', sans-serif;font-size:95.833px;fill:#9700ff;">Char<tspan x="658.372px " y="99.042px ">t</tspan></text><text x="267.379px" y="156.791px" style="font-family:'Asvoria-ExtrudeRightDemo', 'Asvoria Extrude Right Demo';font-size:180.575px;fill:#1a1a2e;">W<tspan x="389.99px " y="156.791px ">S</tspan></text><g transform="matrix(42.083333,0,0,42.083333,774.878346,158.448893)"><path d="M0.097,0.006c-0.032,0 -0.058,-0.01 -0.077,-0.03c-0.02,-0.02 -0.03,-0.051 -0.03,-0.091c0,-0.017 0.003,-0.038 0.008,-0.065l0.107,-0.501l0.148,-0.02l-0.115,0.54c-0.003,0.01 -0.004,0.02 -0.004,0.029c0,0.027 0.014,0.04 0.041,0.04c0.012,-0 0.023,-0.002 0.032,-0.006c-0.003,0.033 -0.015,0.059 -0.036,0.077c-0.021,0.018 -0.046,0.028 -0.075,0.028Z" style="fill:#565656;fill-rule:nonzero;"/></g><g transform="matrix(42.083333,0,0,42.083333,774.878346,158.448893)"></g><text x="506.387px" y="158.449px" style="font-family:'Lobster-Regular', 'Lobster';font-size:42.083px;fill:#565656;">S<tspan x="535.045px 560.969px 581.8px 597.708px 613.615px 634.446px 660.37px " y="158.449px 158.449px 158.449px 158.449px 158.449px 158.449px 158.449px ">nellen </tspan>Di<tspan x="708.765px " y="158.449px ">g</tspan>it<tspan x="752.7px " y="158.449px ">a</tspan></text><defs><radialGradient id="_Radial1" cx="0" cy="0" r="1" gradientUnits="userSpaceOnUse" gradientTransform="matrix(200,0,0,200,0,0)"><stop offset="0" style="stop-color:#ff7b00;stop-opacity:1"/><stop offset="1" style="stop-color:#8b5cf6;stop-opacity:1"/></radialGradient></defs></svg>