<?xml version="1.0" encoding="UTF-8" standalone="no"?><!DOCTYPE svg PUBLIC "-//W3C//DTD SVG 1.1//EN" "http://www.w3.org/Graphics/SVG/1.1/DTD/svg11.dtd"><svg width="100%" height="100%" viewBox="0 0 834 200" version="1.1" xmlns="http://www.w3.org/2000/svg" xmlns:xlink="http://www.w3.org/1999/xlink" xml:space="preserve" xmlns:serif="http://www.serif.com/" style="fill-rule:evenodd;clip-rule:evenodd;stroke-linejoin:round;"><path d="M200,41.667l0,116.667c0,22.996 -18.67,41.667 -41.667,41.667l-116.667,0c-22.996,0 -41.667,-18.67 -41.667,-41.667l0,-116.667c0,-22.996 18.67,-41.667 41.667,-41.667l116.667,0c22.996,0 41.667,18.67 41.667,41.667Z" style="fill:url(#_Linear1);"/><path d="M50,41.667l50,16.667l50,-16.667l0,108.333l-50,16.667l-50,-16.667l0,-108.333Z" style="fill:none;fill-rule:nonzero;stroke:#fff;stroke-width:8.33px;"/><path d="M100,58.333l0,108.333" style="fill:none;fill-rule:nonzero;stroke:#fff;stroke-width:8.33px;stroke-linejoin:miter;"/><text x="286.001px" y="154.941px" style="font-family:'Asvoria-ExtrudeRightDemo', 'Asvoria Extrude Right Demo';font-size:174.692px;fill:#1a1a2e;">W<tspan x="404.616px " y="154.941px ">S</tspan></text><text x="524.416px" y="111.272px" style="font-family:'BebasNeue-Regular', 'Bebas Neue', sans-serif;font-size:91.667px;fill:#a800ff;">Char<tspan x="671.541px " y="111.272px ">t</tspan></text><g transform="matrix(41.666667,0,0,41.666667,644.282931,166.535026)"><path d="M0.176,0.25c-0.031,0 -0.059,-0.01 -0.082,-0.03c-0.024,-0.02 -0.035,-0.046 -0.035,-0.077c0,-0.029 0.007,-0.053 0.022,-0.072c0.015,-0.019 0.034,-0.033 0.057,-0.044c0.023,-0.011 0.055,-0.022 0.094,-0.034l0.009,-0.042c-0.035,0.037 -0.075,0.056 -0.12,0.056c-0.038,0 -0.07,-0.013 -0.095,-0.039c-0.025,-0.026 -0.038,-0.067 -0.038,-0.122c-0,-0.049 0.01,-0.101 0.029,-0.155c0.02,-0.054 0.049,-0.1 0.088,-0.138c0.039,-0.038 0.086,-0.056 0.14,-0.056c0.027,0 0.048,0.005 0.061,0.014c0.013,0.009 0.02,0.022 0.02,0.037l0,0.002l0.01,-0.048l0.145,0l-0.122,0.58c-0.013,0.064 -0.037,0.108 -0.07,0.133c-0.034,0.025 -0.071,0.037 -0.112,0.037Zm0.009,-0.341c0.015,-0 0.031,-0.007 0.047,-0.02c0.016,-0.013 0.027,-0.032 0.034,-0.056l0.051,-0.242c-0.005,-0.023 -0.019,-0.035 -0.041,-0.035c-0.027,0 -0.051,0.016 -0.072,0.046c-0.021,0.031 -0.038,0.068 -0.05,0.112c-0.012,0.044 -0.018,0.082 -0.018,0.116c0,0.033 0.005,0.055 0.014,0.064c0.01,0.009 0.022,0.014 0.036,0.014Zm-0.032,0.252c0.012,0 0.023,-0.006 0.034,-0.018c0.011,-0.012 0.019,-0.032 0.025,-0.06l0.012,-0.059c-0.035,0.012 -0.063,0.026 -0.082,0.042c-0.019,0.016 -0.029,0.037 -0.029,0.062c0,0.008 0.004,0.015 0.012,0.022c0.008,0.007 0.017,0.011 0.028,0.011Z" style="fill:#787878;fill-rule:nonzero;"/></g><g transform="matrix(41.666667,0,0,41.666667,644.282931,166.535026)"></g><g transform="matrix(41.666667,0,0,41.666667,752.657931,166.535026)"><path d="M0.094,0.006c-0.034,0 -0.059,-0.01 -0.075,-0.031c-0.016,-0.021 -0.025,-0.048 -0.025,-0.082c-0,-0.017 0.002,-0.035 0.006,-0.053l0.064,-0.3l-0.033,0l0.008,-0.04l0.033,0l0.03,-0.138l0.148,-0.02c-0.006,0.025 -0.009,0.04 -0.01,0.045c-0.005,0.019 -0.013,0.056 -0.024,0.113l0.06,0l-0.008,0.04l-0.06,0l-0.064,0.3c-0.003,0.015 -0.005,0.026 -0.005,0.035c0,0.024 0.012,0.036 0.035,0.036c0.012,-0 0.021,-0.001 0.026,-0.003c-0.013,0.039 -0.029,0.065 -0.047,0.078c-0.018,0.013 -0.038,0.02 -0.059,0.02Z" style="fill:#787878;fill-rule:nonzero;"/></g><g transform="matrix(41.666667,0,0,41.666667,752.657931,166.535026)"></g><text x="527.283px" y="166.535px" style="font-family:'Lobster-Regular', 'Lobster';font-size:41.667px;fill:#787878;">Readin<tspan x="664.283px " y="166.535px "> </tspan>Char</text><defs><linearGradient id="_Linear1" x1="0" y1="0" x2="1" y2="0" gradientUnits="userSpaceOnUse" gradientTransform="matrix(200,0,0,200,0,0)"><stop offset="0" style="stop-color:#002d50;stop-opacity:1"/><stop offset="1" style="stop-color:#14b8a6;stop-opacity:1"/></linearGradient></defs></svg>